<svg width="16" height="17" viewBox="0 0 16 17" fill="none" xmlns="http://www.w3.org/2000/svg">
<path d="M12.3133 11.72L12.5733 13.8266C12.64 14.38 12.0467 14.7666 11.5733 14.48L8.78 12.82C8.47333 12.82 8.17333 12.8 7.88 12.76C8.37333 12.18 8.66666 11.4466 8.66666 10.6533C8.66666 8.75998 7.02666 7.22665 4.99998 7.22665C4.22664 7.22665 3.51331 7.44665 2.91998 7.83331C2.89998 7.66665 2.89331 7.49998 2.89331 7.32665C2.89331 4.29331 5.52664 1.83331 8.78 1.83331C12.0333 1.83331 14.6667 4.29331 14.6667 7.32665C14.6667 9.12665 13.74 10.72 12.3133 11.72Z" stroke="#FFF987" stroke-linecap="round" stroke-linejoin="round"/>
<path d="M8.66671 10.6533C8.66671 11.4467 8.37337 12.1801 7.88004 12.7601C7.22004 13.5601 6.17337 14.0733 5.00004 14.0733L3.26004 15.1067C2.96671 15.2867 2.59337 15.04 2.63337 14.7L2.80004 13.3867C1.90671 12.7667 1.33337 11.7733 1.33337 10.6533C1.33337 9.48001 1.96004 8.44675 2.92004 7.83341C3.51337 7.44675 4.22671 7.22675 5.00004 7.22675C7.02671 7.22675 8.66671 8.76001 8.66671 10.6533Z" stroke="#FFF987" stroke-linecap="round" stroke-linejoin="round"/>
</svg>
