<svg width="16" height="16" viewBox="0 0 16 16" fill="none" xmlns="http://www.w3.org/2000/svg">
<path d="M10.6667 2.66809C12.1167 2.67609 12.902 2.74076 13.414 3.25276C14 3.83876 14 4.78142 14 6.66676V10.6668C14 12.5528 14 13.4954 13.414 14.0814C12.8287 14.6668 11.8853 14.6668 10 14.6668H6C4.11467 14.6668 3.17133 14.6668 2.586 14.0814C2 13.4948 2 12.5528 2 10.6668V6.66676C2 4.78142 2 3.83876 2.586 3.25276C3.098 2.74076 3.88333 2.67609 5.33333 2.66809" stroke="#2B3D28"/>
<path d="M6.99996 9.33333H11.3333M4.66663 9.33333H4.99996M4.66663 7H4.99996M4.66663 11.6667H4.99996M6.99996 7H11.3333M6.99996 11.6667H11.3333" stroke="#2B3D28" stroke-linecap="round"/>
<path d="M5.33337 2.33337C5.33337 2.06816 5.43873 1.8138 5.62627 1.62627C5.8138 1.43873 6.06816 1.33337 6.33337 1.33337H9.66671C9.93192 1.33337 10.1863 1.43873 10.3738 1.62627C10.5614 1.8138 10.6667 2.06816 10.6667 2.33337V3.00004C10.6667 3.26526 10.5614 3.51961 10.3738 3.70715C10.1863 3.89468 9.93192 4.00004 9.66671 4.00004H6.33337C6.06816 4.00004 5.8138 3.89468 5.62627 3.70715C5.43873 3.51961 5.33337 3.26526 5.33337 3.00004V2.33337Z" stroke="#2B3D28"/>
</svg>
