<svg width="16" height="16" viewBox="0 0 16 16" fill="none" xmlns="http://www.w3.org/2000/svg">
<path d="M9.33325 3.33333C9.33325 2.6 8.73325 2 7.99992 2C7.26659 2 6.66659 2.6 6.66659 3.33333C6.66659 4.06667 7.26659 4.66667 7.99992 4.66667C8.73325 4.66667 9.33325 4.06667 9.33325 3.33333Z" stroke="#4D5962"/>
<path d="M9.33325 12.6666C9.33325 11.9333 8.73325 11.3333 7.99992 11.3333C7.26659 11.3333 6.66659 11.9333 6.66659 12.6666C6.66659 13.4 7.26659 14 7.99992 14C8.73325 14 9.33325 13.4 9.33325 12.6666Z" stroke="#4D5962"/>
<path d="M9.33325 8.00002C9.33325 7.26669 8.73325 6.66669 7.99992 6.66669C7.26659 6.66669 6.66659 7.26669 6.66659 8.00002C6.66659 8.73335 7.26659 9.33335 7.99992 9.33335C8.73325 9.33335 9.33325 8.73335 9.33325 8.00002Z" stroke="#4D5962"/>
</svg>
