<svg width="16" height="16" viewBox="0 0 16 16" fill="none" xmlns="http://www.w3.org/2000/svg">
<g clip-path="url(#clip0_5964_400)">
<path d="M5.99996 6.66667C6.73636 6.66667 7.33329 6.06971 7.33329 5.33333C7.33329 4.59695 6.73636 4 5.99996 4C5.26358 4 4.66663 4.59695 4.66663 5.33333C4.66663 6.06971 5.26358 6.66667 5.99996 6.66667Z" stroke="#2B3D28" stroke-linecap="round" stroke-linejoin="round"/>
<path d="M8.66671 1.33337H6.00004C2.66671 1.33337 1.33337 2.66671 1.33337 6.00004V10C1.33337 13.3334 2.66671 14.6667 6.00004 14.6667H10C13.3334 14.6667 14.6667 13.3334 14.6667 10V6.66671" stroke="#2B3D28" stroke-linecap="round" stroke-linejoin="round"/>
<path d="M12 1.33337V5.33337L13.3333 4.00004" stroke="#2B3D28" stroke-linecap="round" stroke-linejoin="round"/>
<path d="M12 5.33333L10.6666 4" stroke="#2B3D28" stroke-linecap="round" stroke-linejoin="round"/>
<path d="M1.78003 12.6334L5.0667 10.4267C5.59336 10.0734 6.35336 10.1134 6.82667 10.5201L7.04667 10.7134C7.56667 11.1601 8.40667 11.1601 8.92667 10.7134L11.7 8.33341C12.22 7.88675 13.06 7.88675 13.58 8.33341L14.6667 9.26675" stroke="#2B3D28" stroke-linecap="round" stroke-linejoin="round"/>
</g>
<defs>
<clipPath id="clip0_5964_400">
<rect width="16" height="16" fill="white"/>
</clipPath>
</defs>
</svg>
