<svg width="17" height="16" viewBox="0 0 17 16" fill="none" xmlns="http://www.w3.org/2000/svg">
<path d="M13.1666 5.99992C13.1666 6.96659 12.8799 7.85325 12.3866 8.59325C11.6666 9.65992 10.5266 10.4133 9.19992 10.6066C8.97325 10.6466 8.73992 10.6666 8.49992 10.6666C8.25992 10.6666 8.02659 10.6466 7.79992 10.6066C6.47325 10.4133 5.33325 9.65992 4.61325 8.59325C4.11992 7.85325 3.83325 6.96659 3.83325 5.99992C3.83325 3.41992 5.91992 1.33325 8.49992 1.33325C11.0799 1.33325 13.1666 3.41992 13.1666 5.99992Z" stroke="#FFEE43" stroke-linecap="round" stroke-linejoin="round"/>
<path d="M14.6667 12.3134L13.5667 12.5734C13.32 12.6334 13.1267 12.8201 13.0733 13.0668L12.84 14.0468C12.7133 14.5801 12.0333 14.7401 11.68 14.3201L8.5 10.6668L5.31997 14.3268C4.96664 14.7468 4.28664 14.5868 4.15997 14.0534L3.92664 13.0734C3.86664 12.8268 3.6733 12.6334 3.4333 12.5801L2.3333 12.3201C1.82664 12.2001 1.64664 11.5668 2.0133 11.2001L4.6133 8.6001C5.3333 9.66676 6.4733 10.4201 7.8 10.6134C8.02666 10.6534 8.26 10.6734 8.5 10.6734C8.74 10.6734 8.97333 10.6534 9.2 10.6134C10.5267 10.4201 11.6667 9.66676 12.3867 8.6001L14.9867 11.2001C15.3533 11.5601 15.1733 12.1934 14.6667 12.3134Z" stroke="#FFEE43" stroke-linecap="round" stroke-linejoin="round"/>
<path d="M8.88659 3.98675L9.27992 4.77341C9.33325 4.88007 9.47325 4.98675 9.59992 5.00675L10.3133 5.12674C10.7666 5.20007 10.8733 5.53341 10.5466 5.86008L9.99325 6.4134C9.89992 6.50673 9.84659 6.68675 9.87992 6.82008L10.0399 7.50675C10.1666 8.04675 9.87992 8.26008 9.39992 7.97341L8.73325 7.58008C8.61325 7.50675 8.41325 7.50675 8.29325 7.58008L7.62659 7.97341C7.14657 8.25341 6.8599 8.04675 6.98657 7.50675L7.14657 6.82008C7.17325 6.69341 7.12657 6.50673 7.03323 6.4134L6.4799 5.86008C6.15323 5.53341 6.2599 5.20674 6.71323 5.12674L7.42659 5.00675C7.54659 4.98675 7.68659 4.88007 7.73992 4.77341L8.13325 3.98675C8.32659 3.56008 8.67325 3.56008 8.88659 3.98675Z" stroke="#FFEE43" stroke-linecap="round" stroke-linejoin="round"/>
</svg>
