<svg width="16" height="16" viewBox="0 0 16 16" fill="none" xmlns="http://www.w3.org/2000/svg">
<path d="M11.3334 12.2867H8.66671L5.70003 14.26C5.26003 14.5533 4.66671 14.2401 4.66671 13.7067V12.2867C2.66671 12.2867 1.33337 10.9534 1.33337 8.9534V4.95333C1.33337 2.95333 2.66671 1.62 4.66671 1.62H11.3334C13.3334 1.62 14.6667 2.95333 14.6667 4.95333V8.9534C14.6667 10.9534 13.3334 12.2867 11.3334 12.2867Z" stroke="#2B3D28" stroke-miterlimit="10" stroke-linecap="round" stroke-linejoin="round"/>
<path d="M8.0001 7.57337V7.43337C8.0001 6.98004 8.2801 6.74004 8.5601 6.54671C8.83343 6.36004 9.1067 6.12005 9.1067 5.68005C9.1067 5.06672 8.61343 4.57336 8.0001 4.57336C7.38677 4.57336 6.89343 5.06672 6.89343 5.68005" stroke="#2B3D28" stroke-linecap="round" stroke-linejoin="round"/>
<path d="M7.99695 9.16663H8.00295" stroke="#2B3D28" stroke-linecap="round" stroke-linejoin="round"/>
</svg>
