<svg width="80" height="80" viewBox="0 0 80 80" fill="none" xmlns="http://www.w3.org/2000/svg">
<g clip-path="url(#clip0_5610_1881)">
<path d="M77.1844 39.9984C78.4199 38.5596 79.2857 36.8412 79.7067 34.9921C80.1277 33.143 80.0912 31.2191 79.6003 29.3873C79.1094 27.5555 78.179 25.8711 76.8898 24.4803C75.6006 23.0895 73.9915 22.0342 72.2022 21.406C72.5528 19.5422 72.4433 17.621 71.8833 15.8091C71.3233 13.9971 70.3296 12.3492 68.9885 11.0083C67.6474 9.66732 65.9993 8.67386 64.1873 8.11407C62.3753 7.55427 60.4541 7.44506 58.5903 7.7959C57.9626 6.00612 56.9076 4.3966 55.5167 3.10708C54.1259 1.81756 52.4413 0.887026 50.6093 0.396256C48.7772 -0.0945136 46.853 -0.130679 45.0038 0.290901C43.1546 0.71248 41.4363 1.57906 39.9979 2.81541C38.5592 1.57991 36.8407 0.714111 34.9916 0.293115C33.1425 -0.127882 31.2186 -0.0913606 29.3868 0.39951C27.555 0.89038 25.8706 1.82077 24.4798 3.10998C23.089 4.39919 22.0338 6.00827 21.4056 7.79763C19.5419 7.44736 17.6209 7.55706 15.8092 8.11723C13.9975 8.6774 12.3498 9.67112 11.0091 11.0122C9.66836 12.3533 8.67506 14.0012 8.11536 15.813C7.55565 17.6249 7.44644 19.5459 7.79719 21.4095C6.00782 22.0377 4.39874 23.0929 3.10953 24.4837C1.82032 25.8746 0.889925 27.5589 0.399055 29.3907C-0.0918157 31.2225 -0.128343 33.1464 0.292654 34.9955C0.713651 36.8446 1.57947 38.5631 2.81496 40.0018C1.57909 41.4405 0.713009 43.1591 0.291893 45.0084C-0.129224 46.8577 -0.0926654 48.7819 0.39842 50.6138C0.889505 52.4458 1.82026 54.1302 3.10991 55.5209C4.39956 56.9116 6.00914 57.9666 7.79893 58.5942C7.44787 60.4579 7.55696 62.379 8.11673 64.191C8.67651 66.0029 9.67006 67.6508 11.0111 68.9917C12.3522 70.3326 14.0002 71.3259 15.8123 71.8855C17.6243 72.445 19.5454 72.5539 21.4091 72.2026C22.0372 73.992 23.0925 75.601 24.4833 76.8903C25.8741 78.1795 27.5585 79.1098 29.3903 79.6007C31.2221 80.0916 33.146 80.1281 34.9951 79.7071C36.8442 79.2861 38.5627 78.4203 40.0014 77.1848C41.4401 78.4207 43.1587 79.2868 45.008 79.7079C46.8573 80.129 48.7814 80.0924 50.6134 79.6013C52.4453 79.1103 54.1298 78.1795 55.5205 76.8899C56.9112 75.6002 57.9661 73.9906 58.5938 72.2009C60.4575 72.5518 62.3787 72.4427 64.1906 71.8829C66.0026 71.3231 67.6506 70.3296 68.9916 68.9886C70.3326 67.6476 71.3261 65.9996 71.8859 64.1876C72.4457 62.3756 72.5548 60.4545 72.2039 58.5907C73.9934 57.9627 75.6026 56.9075 76.8919 55.5166C78.1812 54.1257 79.1115 52.4412 79.6022 50.6093C80.093 48.7774 80.1292 46.8534 79.7079 45.0043C79.2865 43.1552 78.4203 41.4368 77.1844 39.9984Z" fill="#587950"/>
<path d="M32.8193 55.2675L21.7037 44.1589C21.2819 43.7363 21.0449 43.1637 21.0449 42.5666C21.0449 41.9695 21.2819 41.3969 21.7037 40.9743L23.0542 39.6222C23.4767 39.2003 24.0494 38.9634 24.6464 38.9634C25.2435 38.9634 25.8162 39.2003 26.2387 39.6222L34.3188 47.6971L53.348 27.4752C53.7575 27.0407 54.3226 26.7865 54.9193 26.7683C55.5161 26.7501 56.0956 26.9694 56.5308 27.3781L57.9177 28.6869C58.3526 29.0964 58.6072 29.6619 58.6254 30.2591C58.6436 30.8562 58.424 31.4362 58.0147 31.8714L36.0576 55.2172C35.8508 55.4375 35.6019 55.6141 35.3256 55.7363C35.0492 55.8585 34.7512 55.9238 34.4491 55.9285C34.147 55.9332 33.847 55.8771 33.567 55.7636C33.287 55.65 33.0327 55.4813 32.8193 55.2675Z" fill="#F4F8F9"/>
</g>
<defs>
<clipPath id="clip0_5610_1881">
<rect width="80" height="80" fill="white"/>
</clipPath>
</defs>
</svg>
